<svg width="24" height="24" viewBox="0 0 24 24" fill="none" xmlns="http://www.w3.org/2000/svg">
<path d="M23.7886 4.76817L16.5099 12L23.7886 19.2318C23.9202 18.9568 24 18.6528 24 18.3281V5.67188C24 5.34717 23.9202 5.04319 23.7886 4.76817ZM21.8906 3.5625H2.10938C1.78467 3.5625 1.48069 3.64233 1.20567 3.77391L10.5086 13.03C11.3312 13.8525 12.6688 13.8525 13.4914 13.03L22.7943 3.77391C22.5193 3.64233 22.2153 3.5625 21.8906 3.5625ZM0.211406 4.76817C0.0798281 5.04319 0 5.34717 0 5.67188V18.3281C0 18.6528 0.0798281 18.9569 0.211406 19.2318L7.49011 12L0.211406 4.76817Z" fill="#886D8D"/>
<path d="M15.5156 12.9943L14.4857 14.0242C13.1151 15.3948 10.8849 15.3948 9.51433 14.0242L8.48439 12.9943L1.20569 20.2261C1.4807 20.3577 1.78469 20.4375 2.10939 20.4375H21.8906C22.2153 20.4375 22.5193 20.3577 22.7943 20.2261L15.5156 12.9943Z" fill="#886D8D"/>
</svg>
