<svg width="24" height="24" viewBox="0 0 24 24" fill="none" xmlns="http://www.w3.org/2000/svg">
<g clip-path="url(#clip0_11_270)">
<path d="M18.2464 15.8765C17.4623 15.1024 16.4835 15.1024 15.7044 15.8765C15.1101 16.4658 14.5158 17.0551 13.9315 17.6544C13.7717 17.8192 13.6368 17.8542 13.442 17.7443C13.0575 17.5345 12.648 17.3647 12.2784 17.135C10.5554 16.0513 9.11209 14.6579 7.83358 13.0897C7.19932 12.3106 6.63498 11.4766 6.24044 10.5377C6.16053 10.3479 6.17551 10.2231 6.33033 10.0683C6.92464 9.49392 7.50396 8.90461 8.08828 8.3153C8.90233 7.49625 8.90233 6.53737 8.08329 5.71334C7.61883 5.24388 7.15437 4.78442 6.68991 4.31497C6.21047 3.83553 5.73603 3.35109 5.25159 2.87664C4.46751 2.11254 3.48865 2.11254 2.70956 2.88164C2.11026 3.47095 1.53593 4.07525 0.926638 4.65457C0.362296 5.18895 0.0776281 5.84318 0.017698 6.60729C-0.0771913 7.85084 0.227453 9.02447 0.656952 10.1681C1.53593 12.5354 2.87437 14.6379 4.49747 16.5657C6.68991 19.1726 9.30686 21.2352 12.3683 22.7235C13.7467 23.3927 15.175 23.9071 16.7282 23.992C17.797 24.0519 18.7259 23.7823 19.47 22.9482C19.9794 22.3789 20.5537 21.8595 21.0931 21.3151C21.8922 20.5061 21.8972 19.5272 21.1031 18.7282C20.1542 17.7743 19.2003 16.8254 18.2464 15.8765ZM17.2925 11.8961L19.1354 11.5815C18.8457 9.88846 18.0467 8.35525 16.8331 7.13667C15.5496 5.85317 13.9265 5.04412 12.1386 4.79441L11.8789 6.64725C13.2622 6.84202 14.5208 7.46629 15.5146 8.46013C16.4535 9.39903 17.0678 10.5876 17.2925 11.8961ZM20.1742 3.88547C18.0467 1.75795 15.3548 0.414516 12.3833 0L12.1236 1.85284C14.6906 2.21242 17.0179 3.37606 18.8557 5.20892C20.5987 6.95189 21.7424 9.15432 22.1569 11.5765L23.9997 11.2619C23.5153 8.45514 22.1918 5.90811 20.1742 3.88547Z" fill="#886D8D"/>
</g>
<defs>
<clipPath id="clip0_11_270">
<rect width="24" height="24" fill="white"/>
</clipPath>
</defs>
</svg>
