<svg width="16" height="17" viewBox="0 0 16 17" fill="none" xmlns="http://www.w3.org/2000/svg">
<mask id="mask0_302_80" style="mask-type:alpha" maskUnits="userSpaceOnUse" x="0" y="0" width="16" height="17">
<rect y="0.5" width="16" height="16" fill="#D9D9D9"/>
</mask>
<g mask="url(#mask0_302_80)">
<path d="M7.96668 12.5C8.20001 12.5 8.39723 12.4194 8.55834 12.2583C8.71945 12.0972 8.80001 11.9 8.80001 11.6667C8.80001 11.4333 8.71945 11.2361 8.55834 11.075C8.39723 10.9139 8.20001 10.8333 7.96668 10.8333C7.73334 10.8333 7.53612 10.9139 7.37501 11.075C7.2139 11.2361 7.13334 11.4333 7.13334 11.6667C7.13334 11.9 7.2139 12.0972 7.37501 12.2583C7.53612 12.4194 7.73334 12.5 7.96668 12.5ZM7.36668 9.93333H8.60001C8.60001 9.56667 8.64168 9.27778 8.72501 9.06667C8.80834 8.85556 9.04445 8.56667 9.43334 8.2C9.72223 7.91111 9.95001 7.63611 10.1167 7.375C10.2833 7.11389 10.3667 6.8 10.3667 6.43333C10.3667 5.81111 10.1389 5.33333 9.68334 5C9.22779 4.66667 8.6889 4.5 8.06668 4.5C7.43334 4.5 6.91945 4.66667 6.52501 5C6.13057 5.33333 5.85557 5.73333 5.70001 6.2L6.80001 6.63333C6.85557 6.43333 6.98057 6.21667 7.17501 5.98333C7.36945 5.75 7.66668 5.63333 8.06668 5.63333C8.42223 5.63333 8.6889 5.73056 8.86668 5.925C9.04445 6.11944 9.13334 6.33333 9.13334 6.56667C9.13334 6.78889 9.06668 6.99722 8.93334 7.19167C8.80001 7.38611 8.63334 7.56667 8.43334 7.73333C7.94445 8.16667 7.64445 8.49444 7.53334 8.71667C7.42223 8.93889 7.36668 9.34444 7.36668 9.93333ZM8.00001 15.1667C7.07779 15.1667 6.21112 14.9917 5.40001 14.6417C4.5889 14.2917 3.88334 13.8167 3.28334 13.2167C2.68334 12.6167 2.20834 11.9111 1.85834 11.1C1.50834 10.2889 1.33334 9.42222 1.33334 8.5C1.33334 7.57778 1.50834 6.71111 1.85834 5.9C2.20834 5.08889 2.68334 4.38333 3.28334 3.78333C3.88334 3.18333 4.5889 2.70833 5.40001 2.35833C6.21112 2.00833 7.07779 1.83333 8.00001 1.83333C8.92223 1.83333 9.7889 2.00833 10.6 2.35833C11.4111 2.70833 12.1167 3.18333 12.7167 3.78333C13.3167 4.38333 13.7917 5.08889 14.1417 5.9C14.4917 6.71111 14.6667 7.57778 14.6667 8.5C14.6667 9.42222 14.4917 10.2889 14.1417 11.1C13.7917 11.9111 13.3167 12.6167 12.7167 13.2167C12.1167 13.8167 11.4111 14.2917 10.6 14.6417C9.7889 14.9917 8.92223 15.1667 8.00001 15.1667ZM8.00001 13.8333C9.4889 13.8333 10.75 13.3167 11.7833 12.2833C12.8167 11.25 13.3333 9.98889 13.3333 8.5C13.3333 7.01111 12.8167 5.75 11.7833 4.71667C10.75 3.68333 9.4889 3.16667 8.00001 3.16667C6.51112 3.16667 5.25001 3.68333 4.21668 4.71667C3.18334 5.75 2.66668 7.01111 2.66668 8.5C2.66668 9.98889 3.18334 11.25 4.21668 12.2833C5.25001 13.3167 6.51112 13.8333 8.00001 13.8333Z" fill="#A38AA8"/>
</g>
</svg>
